REM DIRINDEX 1\2,1\3,1\4
REM DIRNAME folder01,folder02,folder03,folder04
TITLE ""
FILE "126 126_Lesson 3_TOEFL_3900.mp3" MP3
  TRACK 01 AUDIO
    TITLE "4:cjc151_5469"
    INDEX 01 00:00:00
  TRACK 02 AUDIO
    TITLE "0:"
    INDEX 01 00:01:52
  TRACK 03 AUDIO
    TITLE "2:cjc151_5470"
    INDEX 01 00:02:42
  TRACK 04 AUDIO
    TITLE "0:"
    INDEX 01 00:03:63
  TRACK 05 AUDIO
    TITLE "3:cjc151_5471"
    INDEX 01 00:05:40
  TRACK 06 AUDIO
    TITLE "0:"
    INDEX 01 00:10:27
  TRACK 07 AUDIO
    TITLE "2:cjc151_5472"
    INDEX 01 00:12:05
  TRACK 08 AUDIO
    TITLE "0:"
    INDEX 01 00:13:10
  TRACK 09 AUDIO
    TITLE "3:cjc151_5473"
    INDEX 01 00:14:66
  TRACK 10 AUDIO
    TITLE "0:"
    INDEX 01 00:19:05
  TRACK 11 AUDIO
    TITLE "2:cjc151_5474"
    INDEX 01 00:20:57
  TRACK 12 AUDIO
    TITLE "0:"
    INDEX 01 00:22:13
  TRACK 13 AUDIO
    TITLE "3:cjc151_5475"
    INDEX 01 00:23:65
  TRACK 14 AUDIO
    TITLE "0:"
    INDEX 01 00:27:71
  TRACK 15 AUDIO
    TITLE "2:cjc151_5476"
    INDEX 01 00:29:48
  TRACK 16 AUDIO
    TITLE "0:"
    INDEX 01 00:31:18
  TRACK 17 AUDIO
    TITLE "3:cjc151_5477"
    INDEX 01 00:32:70
  TRACK 18 AUDIO
    TITLE "0:"
    INDEX 01 00:37:34
  TRACK 19 AUDIO
    TITLE "2:cjc151_5478"
    INDEX 01 00:39:13
  TRACK 20 AUDIO
    TITLE "0:"
    INDEX 01 00:40:46
  TRACK 21 AUDIO
    TITLE "3:cjc151_5479"
    INDEX 01 00:42:23
  TRACK 22 AUDIO
    TITLE "0:"
    INDEX 01 00:45:73
  TRACK 23 AUDIO
    TITLE "2:cjc151_5480"
    INDEX 01 00:47:50
  TRACK 24 AUDIO
    TITLE "0:"
    INDEX 01 00:48:69
  TRACK 25 AUDIO
    TITLE "3:cjc151_5481"
    INDEX 01 00:50:48
  TRACK 26 AUDIO
    TITLE "0:"
    INDEX 01 00:55:20
  TRACK 27 AUDIO
    TITLE "2:cjc151_5482"
    INDEX 01 00:56:74
  TRACK 28 AUDIO
    TITLE "0:"
    INDEX 01 00:58:36
  TRACK 29 AUDIO
    TITLE "3:cjc151_5483"
    INDEX 01 01:00:15
  TRACK 30 AUDIO
    TITLE "0:"
    INDEX 01 01:04:68
  TRACK 31 AUDIO
    TITLE "2:cjc151_5484"
    INDEX 01 01:06:45
  TRACK 32 AUDIO
    TITLE "0:"
    INDEX 01 01:07:68
  TRACK 33 AUDIO
    TITLE "3:cjc151_5485"
    INDEX 01 01:09:46
  TRACK 34 AUDIO
    TITLE "0:"
    INDEX 01 01:12:71
  TRACK 35 AUDIO
    TITLE "2:cjc151_5486"
    INDEX 01 01:14:51
  TRACK 36 AUDIO
    TITLE "0:"
    INDEX 01 01:16:03
  TRACK 37 AUDIO
    TITLE "3:cjc151_5487"
    INDEX 01 01:17:55
  TRACK 38 AUDIO
    TITLE "0:"
    INDEX 01 01:21:53
  TRACK 39 AUDIO
    TITLE "2:cjc151_5488"
    INDEX 01 01:23:30
  TRACK 40 AUDIO
    TITLE "0:"
    INDEX 01 01:24:37
  TRACK 41 AUDIO
    TITLE "3:cjc151_5489"
    INDEX 01 01:26:13
  TRACK 42 AUDIO
    TITLE "0:"
    INDEX 01 01:29:43
  TRACK 43 AUDIO
    TITLE "2:cjc151_5490"
    INDEX 01 01:31:20
  TRACK 44 AUDIO
    TITLE "0:"
    INDEX 01 01:32:29
  TRACK 45 AUDIO
    TITLE "3:cjc151_5491"
    INDEX 01 01:34:05
  TRACK 46 AUDIO
    TITLE "0:"
    INDEX 01 01:37:32
  TRACK 47 AUDIO
    TITLE "2:cjc151_5492"
    INDEX 01 01:39:10
  TRACK 48 AUDIO
    TITLE "0:"
    INDEX 01 01:40:31
  TRACK 49 AUDIO
    TITLE "3:cjc151_5493"
    INDEX 01 01:42:12
  TRACK 50 AUDIO
    TITLE "0:"
    INDEX 01 01:46:70
  TRACK 51 AUDIO
    TITLE "2:cjc151_5494"
    INDEX 01 01:48:48
  TRACK 52 AUDIO
    TITLE "0:"
    INDEX 01 01:49:55
  TRACK 53 AUDIO
    TITLE "3:cjc151_5495"
    INDEX 01 01:51:32
  TRACK 54 AUDIO
    TITLE "0:"
    INDEX 01 01:54:64
  TRACK 55 AUDIO
    TITLE "2:cjc151_5496"
    INDEX 01 01:56:43
  TRACK 56 AUDIO
    TITLE "0:"
    INDEX 01 01:57:72
  TRACK 57 AUDIO
    TITLE "3:cjc151_5497"
    INDEX 01 01:59:50
  TRACK 58 AUDIO
    TITLE "0:"
    INDEX 01 02:03:43
  TRACK 59 AUDIO
    TITLE "2:cjc151_5498"
    INDEX 01 02:05:21
  TRACK 60 AUDIO
    TITLE "0:"
    INDEX 01 02:06:28
  TRACK 61 AUDIO
    TITLE "3:cjc151_5499"
    INDEX 01 02:08:07
  TRACK 62 AUDIO
    TITLE "0:"
    INDEX 01 02:11:41
  TRACK 63 AUDIO
    TITLE "2:cjc151_5500"
    INDEX 01 02:13:20
  TRACK 64 AUDIO
    TITLE "0:"
    INDEX 01 02:14:30
  TRACK 65 AUDIO
    TITLE "3:cjc151_5501"
    INDEX 01 02:16:05
  TRACK 66 AUDIO
    TITLE "0:"
    INDEX 01 02:19:74
  TRACK 67 AUDIO
    TITLE "2:cjc151_5502"
    INDEX 01 02:21:53
  TRACK 68 AUDIO
    TITLE "0:"
    INDEX 01 02:22:72
  TRACK 69 AUDIO
    TITLE "3:cjc151_5503"
    INDEX 01 02:24:51
  TRACK 70 AUDIO
    TITLE "0:"
    INDEX 01 02:28:65
  TRACK 71 AUDIO
    TITLE "2:cjc151_5504"
    INDEX 01 02:30:44
  TRACK 72 AUDIO
    TITLE "0:"
    INDEX 01 02:31:65
  TRACK 73 AUDIO
    TITLE "3:cjc151_5505"
    INDEX 01 02:33:46
  TRACK 74 AUDIO
    TITLE "0:"
    INDEX 01 02:38:18
  TRACK 75 AUDIO
    TITLE "2:cjc151_5506"
    INDEX 01 02:40:00
  TRACK 76 AUDIO
    TITLE "0:"
    INDEX 01 02:41:03
  TRACK 77 AUDIO
    TITLE "3:cjc151_5507"
    INDEX 01 02:42:55
  TRACK 78 AUDIO
    TITLE "0:"
    INDEX 01 02:47:00
  TRACK 79 AUDIO
    TITLE "2:cjc151_5508"
    INDEX 01 02:48:50
  TRACK 80 AUDIO
    TITLE "0:"
    INDEX 01 02:49:49
  TRACK 81 AUDIO
    TITLE "3:cjc151_5509"
    INDEX 01 02:51:29
  TRACK 82 AUDIO
    TITLE "0:"
    INDEX 01 02:55:15
  TRACK 83 AUDIO
    TITLE "2:cjc151_5510"
    INDEX 01 02:56:69
  TRACK 84 AUDIO
    TITLE "0:"
    INDEX 01 02:58:09
  TRACK 85 AUDIO
    TITLE "3:cjc151_5511"
    INDEX 01 02:59:60
  TRACK 86 AUDIO
    TITLE "0:"
    INDEX 01 03:02:74
  TRACK 87 AUDIO
    TITLE "2:cjc151_5512"
    INDEX 01 03:04:53
  TRACK 88 AUDIO
    TITLE "0:"
    INDEX 01 03:05:74
  TRACK 89 AUDIO
    TITLE "3:cjc151_5513"
    INDEX 01 03:07:53
  TRACK 90 AUDIO
    TITLE "0:"
    INDEX 01 03:12:00
